PathFileType	4	(X/Y/Z)	Patient4_TMGait_0pt4_02_right_37.trc.trc
DataRate	CameraRate	NumFrames	NumMarkers	Units	OrigDataRate	OrigDataStartFrame	OrigNumFrames
76.502732240437	76.502732240437	4	33	mm	76.502732240437	18	       141
Frame#	Time	Sacral			L.Shoulder			Chest			R.Shoulder			Neck			R.ASIS			L.ASIS			R.Thigh.Superior			R.Thigh.Lateral			R.Thigh.Inferior			R.Patella			L.Thigh.Superior			L.Thigh.Lateral			L.Thigh.Inferior			L.Patella			L.Shank.Superior			L.Shank.Lateral			L.Shank.Inferior			R.Shank.Superior			R.Shank.Lateral			R.Shank.Inferior			R.Heel			R.Midfoot.Superior			R.Midfoot.Lateral			R.Toe			L.Heel			L.Midfoot.Lateral			L.Midfoot.Superior			L.Toe			L.Elbow			L.Wrist			R.Elbow			R.Wrist			
		X1	Y1	Z1	X2	Y2	Z2	X3	Y3	Z3	X4	Y4	Z4	X5	Y5	Z5	X6	Y6	Z6	X7	Y7	Z7	X8	Y8	Z8	X9	Y9	Z9	X10	Y10	Z10	X11	Y11	Z11	X12	Y12	Z12	X13	Y13	Z13	X14	Y14	Z14	X15	Y15	Z15	X16	Y16	Z16	X17	Y17	Z17	X18	Y18	Z18	X19	Y19	Z19	X20	Y20	Z20	X21	Y21	Z21	X22	Y22	Z22	X23	Y23	Z23	X24	Y24	Z24	X25	Y25	Z25	X26	Y26	Z26	X27	Y27	Z27	X28	Y28	Z28	X29	Y29	Z29	X30	Y30	Z30	X31	Y31	Z31	X32	Y32	Z32	X33	Y33	Z33	

18	49.062214285714	809.027626017106	1012.622840158227	409.539557961077	1021.904059798547	1434.172202306603	236.609956780075	1101.309789197546	1368.785720737447	410.953230838644	996.938060687298	1444.972539855643	571.789179505538	980.364273600682	1498.576835912221	389.461446287653	1026.019483326354	949.754928408086	550.772959478181	1037.202908877743	961.494243672004	275.601479761968	1085.078462425060	761.055794817065	527.445522183296	1031.298747760474	648.957825942925	604.758484415667	1112.583131318424	598.489957902557	524.277734075920	1138.670547040783	518.067677307307	543.181884131693	1047.624265643294	735.461619469908	305.434883378408	942.443193831639	635.759131478162	234.641785674365	1006.744331950462	546.028585662482	300.422385185092	994.509445534805	480.266643098476	308.561411673778	965.092857221411	411.565667142125	298.495270356608	868.496262088051	304.548839835392	244.673486025099	908.356179503559	189.486917054111	316.318597570222	1121.139052733178	433.282548351914	557.458785260438	1068.242018511645	324.062261609110	628.131572999899	1132.128503752413	233.686200108161	576.562534617369	1033.040124323096	49.501079756926	560.647948903751	1200.283112235487	114.989953056279	586.112201240514	1121.197606141762	46.225364143632	629.634869604270	1325.090775742450	74.948188308589	609.579128391387	773.131371762726	38.961981798366	359.952080117566	843.710477016850	35.060346015127	276.351150143258	928.796092234909	94.874708135182	301.782365601089	1056.082625272821	41.225059455631	267.945893706070	1107.065827840343	1120.896947296918	70.617409599105	1358.559802695532	1046.547568074032	70.463608965180	852.098159483727	1128.617803633480	675.043694564079	826.962881782405	867.802556900419	676.942267686337	
19	49.075285714286	809.931597587533	1011.813939912570	411.375951592351	1022.465167337790	1433.558079221043	239.055589881457	1101.764312614636	1368.132169418393	413.417910908305	997.153953937129	1444.142454600497	574.187712662366	980.709352375425	1497.860708996561	391.834785646524	1026.688078886565	948.740792610548	553.012478405839	1038.234395582157	960.853720437307	277.751928555644	1084.165333350923	758.933853355352	530.135550319625	1028.006959275905	646.563308564724	605.717955063395	1109.889759728546	596.439562367986	525.810180779637	1134.950358848441	516.855604068843	543.407776497369	1047.265591442437	734.349287349287	307.329248334992	941.406440361906	635.412270350884	236.076859745334	1004.828476065704	545.142549535497	301.825310537957	992.113680925979	479.320190235621	309.722716447802	962.194855288858	410.845666671783	299.475010032614	864.768576429971	304.632104622579	245.362508977694	903.627542015443	189.033700406510	316.652998690482	1118.745917581228	431.766934241552	557.315422001902	1066.734793210185	321.271668276625	626.564363784658	1132.445708195941	232.176510997311	574.910423686429	1036.046419951191	47.319935965595	557.114588088758	1202.693424116055	113.853708255922	584.095447186506	1123.667124164950	44.523118169713	626.660895484496	1327.464623328680	74.327659265537	607.859819081339	767.869138708713	38.909047765934	359.926773121363	838.432313767262	35.034005526166	276.337020543661	923.524382810850	94.841787036843	301.829656723410	1050.790066038579	41.177387312807	267.931648955563	1106.371857096265	1119.330116520329	73.802295674636	1357.952233287867	1045.748056170304	74.586625847740	853.886050375872	1126.839128564902	677.377364245325	830.492475065908	865.913564101491	679.002546982630	
20	49.088357142857	811.034569044666	1010.851408552550	413.551383656409	1022.758003691483	1432.933031981922	241.709470354518	1102.165305051710	1367.532833938971	416.024982453658	997.354802816034	1443.234836370882	576.826592335821	980.888406007868	1497.083042048095	394.463069181165	1027.767901839289	947.683601687436	555.328269005715	1039.385297018312	960.213912466269	280.022099942999	1084.142714480142	757.039523527280	532.772680284961	1025.535808103270	644.189296194229	606.398953119377	1108.126866386361	594.623339169209	527.132502192138	1131.924447998054	515.438866375790	543.404235655267	1047.119145195371	733.201477560334	309.286157764859	940.516937204121	635.002989223695	237.652926683679	1003.168702091529	544.194938208289	303.279562156457	990.014983143959	478.236807737937	310.920949964623	959.498998063970	410.038122718162	300.498507929186	861.084508795866	304.720212316377	246.135722329621	898.939472138214	188.518082853885	316.986721861828	1116.418166002196	429.840635492194	556.955868365765	1064.288849859271	318.599674400526	624.721320176826	1130.993447401051	230.280003540515	573.082773826775	1035.749815882738	45.755112831081	553.461420546178	1202.161845346686	112.240652639694	582.128627112208	1122.688343845660	43.025260574692	623.731027962612	1326.568338431270	72.438717190773	606.388179999851	762.587224476780	38.779332256576	359.906464650394	833.147923711981	34.951636811844	276.333158224630	918.227058429036	94.793167715868	301.880626240747	1045.504894431182	41.135427506307	267.910279857389	1105.360281716575	1117.657525207413	77.269723633947	1356.818682076264	1044.001316973220	78.944479895588	856.287149777561	1124.692637043222	680.081628486536	835.563752097260	863.598394516810	681.385732957353	
21	49.101428571429	812.316016981591	1009.745635123170	416.049359275429	1022.789528808467	1432.295911129494	244.572148745149	1102.519378744702	1366.989139231022	418.778628772567	997.548547414042	1442.251347246267	579.712070216620	980.909559416450	1496.248219856084	397.352526870742	1029.244990570647	946.591318099983	557.711433733617	1040.644006982662	959.579496143595	282.410459686174	1085.000282703135	755.353447591173	535.320164133412	1023.917454113806	641.896132126578	606.861610477794	1107.274978728631	593.036664157241	528.271263978475	1129.596727152712	513.834799161938	543.219856900651	1047.212507755660	732.029013003562	311.273713871747	939.801125394726	634.520760141632	239.368826120082	1001.822489452770	543.181288002361	304.773333356216	988.292463277659	476.996945398674	312.137677429800	957.056108925085	409.129020935274	301.562522334928	857.477007116750	304.820249053255	247.004023742699	894.316761543041	187.939645021963	317.323164481686	1114.261145818651	427.565244449837	556.454204021086	1061.188768744752	316.035453999417	622.784101897793	1128.113067100692	228.009051567165	571.187096941643	1032.645597123440	44.625598602657	549.895605752670	1199.125564014423	110.208734131480	580.284384945538	1118.823625133948	41.677401288084	620.997921080787	1322.961488356690	69.536381291545	605.196482634824	757.285115320101	38.579497619895	359.889946005621	827.861599676821	34.809011830568	276.343874533196	912.913021697806	94.722133155861	301.936400515656	1040.236507509989	41.094306777320	267.878096303672	1104.011209019652	1115.885355246462	80.996845239905	1355.147494988393	1041.342528846671	83.509662372807	859.281574689369	1122.206462538606	683.127323508081	842.097241037093	860.910145936354	684.086564251848	
